<svg xmlns="http://www.w3.org/2000/svg" xmlns:xlink="http://www.w3.org/1999/xlink" viewBox="0 0 348.74707 115.5"><defs><style>.a{fill:url(#a);}</style><linearGradient id="a" x1="81.62646" y1="128" x2="430.37354" y2="128" gradientUnits="userSpaceOnUse"><stop offset="0.00018" stop-color="#5ed7ff"/><stop offset="0.91537" stop-color="#ff6a6e"/></linearGradient></defs><path class="a" d="M134.87646,184.25h-25.5V98.2998h-27.75V77.14941h81V98.2998h-27.75Zm66.9004-84q16.04881,0,24.90039,7.4248,8.84765,7.4253,8.84961,21.97461V184.25H217.97705l-4.95019-11.10059h-.59961A34.79188,34.79188,0,0,1,201.32666,182.75q-5.84912,2.99853-16.0498,3-10.95119,0-18.1504-6.4502-7.1997-6.44823-7.19921-19.95019,0-13.19678,9.22461-19.5,9.22558-6.3003,27.07519-7.04981l14.09961-.45019V129.9502q0-5.99854-3.0752-8.7002-3.07617-2.6997-8.4746-2.7002a39.49024,39.49024,0,0,0-11.3252,1.72461,112.6212,112.6212,0,0,0-11.77441,4.27539L168.02686,107.75a61.38713,61.38713,0,0,1,15.2998-5.5498A82.95552,82.95552,0,0,1,201.77686,100.25Zm8.5498,46.5-7.64941.2998q-9.45118.30177-13.2002,3.375a10.2,10.2,0,0,0-3.75,8.3252q0,4.80175,2.625,6.8252a11.11337,11.11337,0,0,0,6.97461,2.02441,15.557,15.557,0,0,0,10.65039-3.8252q4.34912-3.8247,4.34961-10.4248Zm71.84863-76.5v48.14941q0,4.80323-.375,10.2002-.375,5.40088-.97461,10.20019h.4502q1.19824-1.80028,3.89941-5.625t5.40039-7.125l21-24.15039h28.2002l-30.75,35.40039L341.72607,184.25H312.77588l-21.15039-31.5-9.4502,7.34961V184.25H256.82568v-114Zm148.19825,31.64941V184.25h-19.2002l-3.2998-10.5h-1.5a22.58831,22.58831,0,0,1-10.6504,9.14941A36.66384,36.66384,0,0,1,381.32373,185.75q-12.75147,0-20.92578-7.125-8.17676-7.12353-8.17481-23.02539v-53.7002h25.35059V148.5498q0,8.40235,2.77441,12.75,2.77441,4.35205,8.92481,4.34961,9.14794,0,12.45019-6.75,3.29737-6.75,3.29981-19.5v-37.5Z" transform="translate(-81.62646 -70.25)"/></svg>